<svg xmlns="http://www.w3.org/2000/svg" width="27.407" height="27.407" viewBox="0 0 27.407 27.407"><defs><style>.a{fill:#fff;}</style></defs><path class="a" d="M18.842,0H8.565A8.566,8.566,0,0,0,0,8.565V18.842a8.566,8.566,0,0,0,8.565,8.565H18.842a8.566,8.566,0,0,0,8.565-8.565V8.565A8.566,8.566,0,0,0,18.842,0Zm6,18.842a6,6,0,0,1-6,6H8.565a6,6,0,0,1-6-6V8.565a6,6,0,0,1,6-6H18.842a6,6,0,0,1,6,6Z"/><g transform="translate(6.852 6.852)"><path class="a" d="M134.852,128a6.852,6.852,0,1,0,6.852,6.852A6.852,6.852,0,0,0,134.852,128Zm0,11.134a4.282,4.282,0,1,1,4.282-4.282A4.288,4.288,0,0,1,134.852,139.134Z" transform="translate(-128 -128)"/></g><g transform="translate(20.156 5.425)"><circle class="a" cx="0.913" cy="0.913" r="0.913"/></g></svg>