<?xml version='1.0' encoding='iso-8859-1'?>
<!DOCTYPE svg PUBLIC '-//W3C//DTD SVG 1.1//EN' 'http://www.w3.org/Graphics/SVG/1.1/DTD/svg11.dtd'>
<svg version="1.1" color="#fff" fill="#fff" xmlns="http://www.w3.org/2000/svg" viewBox="0 0 297 297" xmlns:xlink="http://www.w3.org/1999/xlink" enable-background="new 0 0 297 297">
  <g>
    <path d="m204.465,180.89v-45.922c0-13.872-8.843-26.141-22.005-30.529-0.068-0.023-8.496-2.608-8.496-2.608-3.024-0.932-6.314-0.196-8.659,1.925l-16.805,15.193-16.806-15.194c-2.345-2.121-5.638-2.857-8.659-1.925 0,0-8.428,2.586-8.496,2.608-13.162,4.389-22.005,16.657-22.005,30.529v45.922c0,4.962 4.022,8.984 8.984,8.984h93.962c4.963,0.001 8.985-4.021 8.985-8.983zm-17.968-8.984h-75.994v-36.938c0-6.095 3.865-11.489 9.63-13.453l3.295-1.012 19.048,17.221c3.421,3.094 8.629,3.094 12.05,0l19.048-17.221 3.295,1.012c5.765,1.964 9.63,7.358 9.63,13.453v36.938z"/>
    <path d="m148.5,99.828c17.906,0 32.474-14.568 32.474-32.475 0-17.906-14.568-32.474-32.474-32.474s-32.474,14.568-32.474,32.474c-1.42109e-14,17.907 14.568,32.475 32.474,32.475zm0-46.981c7.998,0 14.506,6.508 14.506,14.506 0,7.999-6.508,14.507-14.506,14.507s-14.506-6.508-14.506-14.507c0-7.998 6.508-14.506 14.506-14.506z"/>
    <path d="M200.819,279.032h-30.289c30.048-30.867,91.592-101.847,91.592-165.411C262.121,50.97,211.15,0,148.5,0   S34.879,50.97,34.879,113.621c0,62.136,61.963,134.235,91.866,165.411H96.181c-4.962,0-8.984,4.022-8.984,8.984   c0,4.962,4.022,8.984,8.984,8.984h104.637c4.962,0,8.984-4.022,8.984-8.984C209.802,283.054,205.78,279.032,200.819,279.032z    M148.5,17.968c52.744,0,95.653,42.909,95.653,95.653c0,63.583-73.629,140.417-95.592,161.918   c-21.916-21.846-95.714-100.019-95.714-161.918C52.847,60.877,95.756,17.968,148.5,17.968z"/>
  </g>
</svg>
