<?xml version="1.0" encoding="iso-8859-1"?>
<!-- Generator: Adobe Illustrator 16.0.0, SVG Export Plug-In . SVG Version: 6.00 Build 0)  -->
<!DOCTYPE svg PUBLIC "-//W3C//DTD SVG 1.1//EN" "http://www.w3.org/Graphics/SVG/1.1/DTD/svg11.dtd">
<svg version="1.1" id="Capa_1" xmlns="http://www.w3.org/2000/svg" xmlns:xlink="http://www.w3.org/1999/xlink" x="0px" y="0px"
	 width="612.001px" fill="#fff" height="612px" viewBox="0 0 612.001 612" style="enable-background:new 0 0 612.001 612;" xml:space="preserve"
	>
<g>
	<path d="M588.074,199.311c-11.954-12.377-25.671-16.74-35.288-18.225c-8.256-62.36-15.939-94.828-275.988-94.828
		C16.75,86.258,0,125.46,0,193.498v11.605c0,18.411,14.925,33.336,33.336,33.336h83.427c18.411,0,33.336-14.925,33.336-33.336
		v-11.605c0-52.705,80.699-54.319,126.698-54.319c45.998,0,126.697,1.614,126.697,54.319v11.605
		c0,18.411,14.926,33.336,33.337,33.336h83.427c18.411,0,33.337-14.925,33.337-33.336v-4.464c6.146,1.51,13.907,4.794,20.776,11.905
		c16.747,17.347,22.305,50.861,16.068,96.927c-10.815,79.816-42.181,108.325-75.585,117.813v-13.886
		c0-14.097-3.524-28.05-10.668-40.242c-33.336-57.053-80.674-107.677-140.823-152.301v-33.717c0-2.619-2.143-4.762-4.762-4.762
		h-49.481c-2.667,0-4.762,2.143-4.762,4.762v33.527h-56.481v-33.527c0-2.619-2.143-4.762-4.762-4.762h-49.529
		c-2.62,0-4.762,2.143-4.762,4.762v33.527C128.581,265.384,81.195,316.007,47.81,373.156c-7.144,12.192-10.668,26.146-10.668,40.242
		v31.384c0,44.72,36.242,80.961,80.961,80.961h315.793c44.018,0,79.744-35.135,80.855-78.884
		c53.54-12.54,83.912-56.224,94.562-134.831C616.467,259.232,609.318,221.31,588.074,199.311z M358.727,414.231l-31.774-11.313
		c3.371-6.792,5.314-14.421,5.314-22.522c0-28.003-22.716-50.72-50.767-50.72c-28.003,0-50.767,22.717-50.767,50.72
		c0,28.051,22.764,50.768,50.767,50.768c10.371,0,20.003-3.121,28.037-8.453l17.429,28.648
		c-13.129,8.43-28.707,13.379-45.465,13.379c-46.576,0-84.294-37.766-84.294-84.341c0-46.529,37.718-84.294,84.294-84.294
		c46.576,0,84.342,37.766,84.342,84.294C365.842,392.437,363.275,403.867,358.727,414.231z"/>
</g>
<g>
</g>
<g>
</g>
<g>
</g>
<g>
</g>
<g>
</g>
<g>
</g>
<g>
</g>
<g>
</g>
<g>
</g>
<g>
</g>
<g>
</g>
<g>
</g>
<g>
</g>
<g>
</g>
<g>
</g>
</svg>
