<svg xmlns="http://www.w3.org/2000/svg" width="32.161" height="26.131" viewBox="0 0 32.161 26.131"><g transform="translate(0 0)"><path d="M32.161,51.093a13.746,13.746,0,0,1-3.8,1.041,6.556,6.556,0,0,0,2.9-3.644,13.176,13.176,0,0,1-4.181,1.6,6.593,6.593,0,0,0-11.405,4.509,6.789,6.789,0,0,0,.153,1.5,18.662,18.662,0,0,1-13.59-6.9,6.6,6.6,0,0,0,2.026,8.812A6.511,6.511,0,0,1,1.286,57.2v.072a6.624,6.624,0,0,0,5.282,6.478,6.58,6.58,0,0,1-1.729.217,5.83,5.83,0,0,1-1.248-.113A6.656,6.656,0,0,0,9.753,68.45a13.248,13.248,0,0,1-8.175,2.812A12.351,12.351,0,0,1,0,71.172a18.562,18.562,0,0,0,10.115,2.959c12.133,0,18.766-10.05,18.766-18.762,0-.291-.01-.573-.024-.852A13.153,13.153,0,0,0,32.161,51.093Z" transform="translate(0 -48)"/></g></svg>